<?xml version="1.0" standalone="no"?><!DOCTYPE svg PUBLIC "-//W3C//DTD SVG 1.1//EN" "http://www.w3.org/Graphics/SVG/1.1/DTD/svg11.dtd"><svg t="1501229746177" class="icon" style="" viewBox="0 0 1024 1024" version="1.1" xmlns="http://www.w3.org/2000/svg" p-id="2919" xmlns:xlink="http://www.w3.org/1999/xlink" width="200" height="200"><defs><style type="text/css"></style></defs><path d="M511.999488 958.877817c-246.393713 0-446.877817-200.455451-446.877817-446.877817 0-246.424412 200.484104-446.87884 446.877817-446.87884 246.394736 0 446.877817 200.455451 446.877817 446.87884C958.877305 758.423389 758.394225 958.877817 511.999488 958.877817zM511.999488 120.981399c-215.612663 0-391.018601 175.405939-391.018601 391.018601s175.405939 391.017578 391.018601 391.017578c215.613686 0 391.017578-175.404915 391.017578-391.017578S727.613174 120.981399 511.999488 120.981399z" p-id="2920"></path><path d="M477.406622 683.71078 263.015787 683.71078l0-56.965409 71.599711 0L334.615499 407.030273 261.008061 423.641603l0-58.738799 145.206126-30.607088 0 292.449655 71.191412 0L477.405599 683.71078z" p-id="2921"></path><path d="M592.035336 503.912811c-39.624463-16.409738-59.409065-42.652426-59.409065-78.729086 0-27.173896 10.736529-49.109488 32.237215-65.722864 21.527292-16.642029 48.092321-24.962531 79.71453-24.962531 31.915897 0 58.159608 7.739265 78.729086 23.187095 20.539802 15.419178 30.809703 36.252669 30.809703 62.406329 0 37.560454-21.647019 65.401546-64.965617 83.585697l0 0.873903c23.362081 6.982018 41.48688 18.271132 54.406121 33.952276 12.974499 15.680121 19.432585 33.545 19.432585 53.648874 0 31.188326-11.434423 55.249325-34.271548 72.179926-22.810518 16.933671-53.532217 25.371854-92.109838 25.371854-33.255405 0-60.661591-8.378831-82.162278-25.136493-21.500687-16.787338-32.236192-39.509852-32.236192-68.196195 0-41.371246 23.24747-71.832002 69.824275-91.354638L592.034313 503.912811zM640.360971 532.713764c-33.546024 13.180184-50.333362 33.108049-50.333362 59.874669 0 13.151531 5.121648 23.974018 15.420201 32.382525 10.268878 8.407484 22.721491 12.625552 37.354769 12.625552 15.217586 0 27.755134-4.013407 37.59013-12.072967 9.831926-8.030907 14.721283-19.084661 14.721283-33.137725C695.115016 565.18327 676.87356 545.283034 640.360971 532.713764zM686.474218 426.289919c0-12.248975-3.868097-21.936615-11.637038-29.036313-7.739265-7.098675-17.980513-10.647501-30.693046-10.647501-11.958356 0-22.229281 3.753487-30.696116 11.20111-8.522094 7.477298-12.770861 17.019629-12.770861 28.716019 0 22.459524 14.344706 39.480176 43.00035 51.001581C672.217517 465.682092 686.474218 448.63381 686.474218 426.289919z" p-id="2922"></path></svg>