<?xml version="1.0" standalone="no"?><!DOCTYPE svg PUBLIC "-//W3C//DTD SVG 1.1//EN" "http://www.w3.org/Graphics/SVG/1.1/DTD/svg11.dtd"><svg t="1501226718248" class="icon" style="" viewBox="0 0 1024 1024" version="1.1" xmlns="http://www.w3.org/2000/svg" p-id="3642" xmlns:xlink="http://www.w3.org/1999/xlink" width="200" height="200"><defs><style type="text/css"></style></defs><path d="M507.74007 0c-210.678761 0-381.423876 171.915752-381.423876 383.999481S507.74007 1023.999981 507.74007 1023.999981s381.423876-427.915747 381.423876-640.0005S718.418831 0 507.74007 0zM507.74007 669.979642c-156.809015 0-283.988851-127.999486-283.988851-285.980161 0-157.862997 127.179836-285.980161 283.988851-285.980161 156.925669 0 284.106528 128.117164 284.106528 285.980161C791.728921 541.862478 664.548062 669.979642 507.74007 669.979642z" p-id="3643"></path><path d="M589.418574 182.850561l-33.588264 0c-11.329797 26.870406-29.637365 53.082841-54.925775 78.635258 9.217739 6.321847 17.254609 12.514759 24.103447 18.571576 12.379686-13.434691 23.971444-28.318353 34.773226-44.652007l45.048018 0-15.806663 11.854741c11.589711 10.273768 22.654477 21.603565 33.193276 33.982228l-16.200627 0 0 24.499458-64.015604 0 0-23.709483-26.079408 0 0 23.709483-33.588264 0 0 22.918485 33.588264 0 0 40.306121L469.68722 368.966421l0 22.918485 224.44602 0 0-22.918485-62.03862 0 0-40.306121 51.369864 0 0-22.918485-51.369864 0 0-24.499458-9.089829 0 20.549583-16.596638c-10.802806-10.273768-21.734545-20.019522-32.799312-29.241355l85.748103 0 0-22.918485L573.611911 212.48588C579.143782 203.004133 584.4096 193.124329 589.418574 182.850561zM606.015212 368.967444l-64.015604 0 0-40.306121 64.015604 0L606.015212 368.967444z" p-id="3644"></path><path d="M407.647577 463.409365l0-27.660381 62.829618 0 0-22.918485-62.829618 0 0-32.402278 50.183878 0 0-22.918485-50.183878 0 0-31.217315 56.901736 0 0-22.918485-56.901736 0 0-25.289433-26.079408 0 0 25.289433-60.45867 0 0 22.918485 60.45867 0 0 31.217315-51.764852 0 0 22.918485 51.764852 0 0 32.402278-64.805579 0 0 22.918485 58.087722 0c-17.124652 31.349319-37.934149 59.0097-62.433607 82.982167 3.685868 7.112845 7.112845 17.515547 10.273768 31.217315 21.600495-22.394563 41.226053-49.2619 58.877697-80.611219l0 103.134716 26.079408 0L407.647577 469.336224c17.386613 16.596638 32.665262 32.272321 45.837993 47.022955l19.757561-21.338535c-14.491744-13.697675-31.74533-28.845344-51.764852-45.441982L407.647577 463.409365z" p-id="3645"></path><path d="M328.222344 295.46907c21.863479-17.911558 40.963069-37.934149 57.296723-60.062659l41.491083 0-18.967586 14.22569c10.273768 11.063743 20.54856 23.051512 30.822328 35.959212l21.338535-16.201651c-10.801783-11.854741-21.603565-23.181469-32.402278-33.983251l85.353115 0 0-22.918485L401.720718 212.487927c6.056816-9.483793 11.721715-19.362574 16.991626-29.636342l-33.588264 0c-18.967586 37.144174-44.52205 67.965479-76.659297 92.46596C314.521598 280.323448 321.109499 287.041306 328.222344 295.46907z" p-id="3646"></path><path d="M489.444781 571.285977l26.079408 0 0-16.201651 126.843175 0 0 16.201651 26.081455 0L668.448819 418.756335 489.444781 418.756335 489.444781 571.285977zM515.524189 441.675843l126.843175 0 0 33.982228L515.524189 475.658071 515.524189 441.675843zM515.524189 497.78658l126.843175 0 0 34.378239L515.524189 532.164819 515.524189 497.78658z" p-id="3647"></path></svg>