<?xml version="1.0" standalone="no"?><!DOCTYPE svg PUBLIC "-//W3C//DTD SVG 1.1//EN" "http://www.w3.org/Graphics/SVG/1.1/DTD/svg11.dtd"><svg t="1501229327903" class="icon" style="" viewBox="0 0 1024 1024" version="1.1" xmlns="http://www.w3.org/2000/svg" p-id="1384" xmlns:xlink="http://www.w3.org/1999/xlink" width="200" height="200"><defs><style type="text/css"></style></defs><path d="M512 63.488c-247.140352 0-447.488 200.805376-447.488 448.512s200.347648 448.512 447.488 448.512 447.488-200.805376 447.488-448.512-200.347648-448.512-447.488-448.512z m231.099392 568.184832V738.548736c0 14.712832-11.936768 26.74176-26.6496 26.74176h-53.390336V551.540736h-106.69056v213.74976H307.456c-14.712832 0-26.6496-11.936768-26.6496-26.74176V551.539712l231.146496-231.60832 231.146496 231.60832v80.13312z m26.74176-97.99168c-7.032832 0-13.325312-2.776064-18.136064-7.217152l-0.093184 0.093184L512.601088 287.082496l-0.648192-0.648192-239.104 239.566848c-4.811776 4.718592-11.47392 7.68-18.692096 7.68-14.712832 0-26.6496-11.936768-26.6496-26.74176 0-7.58784 3.145728-14.435328 8.236032-19.247104l257.147904-257.609728c4.810752-5.08928 11.659264-8.236032 19.24608-8.236032H513.711104c0.369664 0 0.831488 0.093184 1.202176 0.093184h0.093184c6.56896 0.740352 12.399616 3.79392 16.562176 8.328192L636.500992 335.384576v-24.520704c0-14.804992 11.936768-26.74176 26.6496-26.74176 14.712832 0 26.6496 11.936768 26.6496 26.74176v78.189568l99.564544 99.749888-0.09216 0.093184c4.442112 4.718592 7.217152 11.012096 7.217152 18.043904 0.001024 14.711808-11.935744 26.740736-26.648576 26.740736z" p-id="1385"></path><path d="M360.756224 551.539712h106.781696v106.87488H360.756224z" p-id="1386"></path></svg>