<?xml version="1.0" standalone="no"?><!DOCTYPE svg PUBLIC "-//W3C//DTD SVG 1.1//EN" "http://www.w3.org/Graphics/SVG/1.1/DTD/svg11.dtd"><svg t="1501230167273" class="icon" style="" viewBox="0 0 1024 1024" version="1.1" xmlns="http://www.w3.org/2000/svg" p-id="4222" xmlns:xlink="http://www.w3.org/1999/xlink" width="200" height="200"><defs><style type="text/css"></style></defs><path d="M987.009 346.669c-24.672-11.415-414.621-187.426-414.621-187.426s-42.714-20.254-60.388-20.254c-17.675 0-60.388 20.254-60.388 20.254s-389.951 176.012-414.621 187.426c-24.672 11.415 0 25.775 0 25.775s333.612 151.341 394.367 178.221c49.711 22.095 60.756 21.725 80.641 21.725 19.884 0 30.93 0.369 80.641-21.725 41.979-18.78 213.571-96.476 315.936-142.871v129.983l-33.509 33.509 46.765 46.765 46.765-46.765-33.509-33.509v-142.134c31.668-14.361 51.92-23.568 51.92-23.568s24.672-14.361 0-25.408z" p-id="4223"></path><path d="M512 615.104c-19.884 0-30.93 0.369-80.641-21.725-30.195-13.625-127.774-57.442-218.356-98.684v298.997c90.583 40.873 188.162 85.059 218.356 98.684 49.711 22.095 60.756 21.725 80.641 21.725 19.884 0 30.93 0.369 80.641-21.725 30.195-13.625 127.774-57.442 218.356-98.684v-298.997c-90.583 40.873-188.162 85.059-218.356 98.684-49.711 22.462-60.756 21.725-80.641 21.725z" p-id="4224"></path></svg>