<?xml version="1.0" standalone="no"?><!DOCTYPE svg PUBLIC "-//W3C//DTD SVG 1.1//EN" "http://www.w3.org/Graphics/SVG/1.1/DTD/svg11.dtd"><svg t="1501226470773" class="icon" style="" viewBox="0 0 1024 1024" version="1.1" xmlns="http://www.w3.org/2000/svg" p-id="3122" xmlns:xlink="http://www.w3.org/1999/xlink" width="200" height="200"><defs><style type="text/css"></style></defs><path d="M656.384 681.472c12.288-29.696 18.944-60.928 18.944-93.696 0-32.256-6.144-64-18.944-93.696-9.216-22.016-22.016-43.008-37.376-61.44l167.424-167.424v126.976c0 11.776 9.728 21.504 21.504 21.504 11.776 0 21.504-9.728 21.504-21.504v-175.104c0-11.776-9.728-21.504-21.504-21.504h-175.104c-11.776 0-21.504 9.728-21.504 21.504 0 11.776 9.728 21.504 21.504 21.504h119.296L588.8 401.92c-17.92-14.848-37.888-27.136-59.392-36.352-29.696-12.288-60.928-18.944-93.696-18.944-32.256 0-64 6.144-93.696 18.944-28.672 12.288-54.272 29.696-76.288 51.712-22.016 22.016-39.424 47.616-51.712 76.288-12.288 29.696-18.944 60.928-18.944 93.696 0 32.256 6.144 64 18.944 93.696 12.288 28.672 29.696 54.272 51.712 76.288 22.016 22.016 47.616 39.424 76.288 51.712 29.696 12.288 60.928 18.944 93.696 18.944 32.256 0 64-6.144 93.696-18.944 28.672-12.288 54.272-29.696 76.288-51.712 21.504-21.504 38.4-47.104 50.688-75.776z m-221.696 103.424c-108.544 0-197.12-88.576-197.12-197.12s88.576-197.12 197.12-197.12 197.12 88.576 197.12 197.12-88.064 197.12-197.12 197.12z" p-id="3123"></path></svg>